<?xml version="1.0" encoding="UTF-8"?>
<svg width="150px" height="150px" viewBox="0 0 150 150" version="1.1" xmlns="http://www.w3.org/2000/svg" xmlns:xlink="http://www.w3.org/1999/xlink">
    <!-- Generator: Sketch 60.1 (88133) - https://sketch.com -->
    <title>编组</title>
    <desc>Created with Sketch.</desc>
    <g id="页面-1" stroke="none" stroke-width="1" fill="none" fill-rule="evenodd">
        <g id="编组" fill="#FFFFFF" fill-rule="nonzero">
            <path d="M98.6605,56 C104.4135,64.1672005 112.6045,70.9440005 119.6605,78 C122.6245,80.9640005 127.9115,84.6850005 128.8445,89 C129.8325,93.5710005 124.6455,101.363 122.1925,105 C113.1275,118.442 97.1915,129.577 80.6605,130.907 C45.6709,133.721 13.885,100.069 19.9892,65 C22.3971,51.1665005 32.5901,37.7173005 43.6605,29.6057005 C58.7388,18.5575005 77.3231,16.4450005 94.6605,22.6991005 C99.8795,24.5816005 107.2855,32.0967005 112.6605,31.8333005 C117.6965,31.5866005 123.3275,23.3329005 126.6605,20 C116.5025,6.23830047 95.0295,6.82121026e-13 78.6605,6.82121026e-13 C67.1255,6.82121026e-13 56.5049,0.775700473 45.6605,5.19520047 C17.6201,16.6226005 -1.70530257e-13,45.1530005 -1.70530257e-13,75 C-1.70530257e-13,99.9170005 12.4004,124.954 33.6605,138.441 C72.824,163.286 133.0445,146.411 147.0405,100 C148.7725,94.2590005 151.2315,85.8960005 149.0575,80 C147.7225,76.3809005 144.3095,73.6544005 141.6605,71 L127.6605,57 C124.3225,53.6616005 117.7855,44.2068005 112.6605,44.2068005 C107.7665,44.2068005 101.8635,52.7970005 98.6605,56 Z" id="路径"></path>
            <path d="M94.6605,61.0000005 C90.9815,63.5916005 80.6955,70.7435005 82.0065,76.0000005 C83.1465,80.5750005 89.5385,84.6970005 92.6365,88.0000005 C94.7605,90.2640005 97.2585,92.7610005 95.1945,95.8950005 C93.1795,98.9550005 88.8805,100.758 85.6605,102.204 C64.4738,111.72 39.2869,87.8750005 47.4606,66.0000005 C51.6509,54.7855005 64.2198,44.4281005 76.6605,45.1080005 C82.3685,45.4200005 89.3495,51.5541005 94.6605,50.2639005 C97.4465,49.5871005 99.7245,46.9616005 101.6415,44.9954005 C103.0705,43.5291005 104.7455,41.9549005 105.5745,40.0394005 C107.0125,36.7147005 104.1775,34.5377005 101.6415,32.9267005 C96.4475,29.6272005 89.8085,26.8417005 83.6605,26.1736005 C62.5016,23.8743005 41.655,32.3811005 31.5617,52.0000005 C17.834,78.6830005 32.5001,117.469 63.6605,122.674 C82.5495,125.83 101.6565,121.656 113.9915,106 C117.1905,101.94 122.3825,95.6030005 121.2995,90.0000005 C120.5055,85.8960005 116.4535,82.7990005 113.6605,80.0000005 L94.6605,61.0000005 Z" id="路径"></path>
        </g>
    </g>
</svg>